<svg xmlns="http://www.w3.org/2000/svg" viewBox="0 0 128 128" role="img" aria-labelledby="title description">
  <title id="title">Katari kana ring</title>
  <desc id="description">The kana ka crossing a clay ring on an indigo field</desc>
  <rect width="128" height="128" rx="30" fill="#18253f"/>
  <circle cx="64" cy="64" r="31.5" fill="#d8895f"/>
  <circle cx="64" cy="64" r="25.5" fill="#253b62"/>
  <g transform="translate(47.4 76.15) scale(.25)" fill="#f4f1e8">
    <path d="M103.172-89.094 87.937-82.562c9.094 11.265 18.172 34.437 21.5 48.64l16.266-7.547c-3.844-12.156-14.594-36.609-22.531-47.625Z"/>
    <path d="M7.172-74.875 8.703-57.469c3.844-.64 10.625-1.547 14.203-2.172l11.016-1.28c-4.61 17.53-13.438 43.39-25.86 60.156l16.641 6.656c11.781-18.813 21.25-49.157 26.11-68.61 3.593-.25 6.78-.515 8.827-.515 8.078 0 12.422 1.406 12.422 11.656 0 12.672-1.656 28.156-5.125 35.453-2.047 4.219-5.375 5.5-9.593 5.5-3.453 0-10.75-1.281-15.75-2.687l2.828 16.89c4.344.907 10.36 1.797 15.36 1.797 9.593,0 16.765-2.812 20.984-11.781 5.5-11.125 7.297-31.86 7.297-46.969 0-18.437-9.594-24.453-23.172-24.453-2.688 0-6.516.266-10.75.516l2.687-13.188c.64-3.203 1.547-7.297 2.313-10.625l-19.078-1.922c.125 8.078-.891 17.422-2.688 27.016-6.531.64-12.547,1.015-16.516,1.156-4.734.125-9.078.375-13.687,0Z"/>
  </g>
</svg>
